# xmcd
#
# Track frame offsets:
#	150
#	22620
#	44035
#	65000
#	81596
#	97650
#	114353
#	129627
#	148987
#	169758
#	190861
#	212590
#	231087
#	246345
#	261309
#	275678
#	292294
#	308201
#	326166
#
# Disc length: 4610 seconds
#
# Revision: 1
# Processed by: cddbd v1.5.2PL0 Copyright (c) Steve Scherf et al.
# Submitted via: audiograbber 1.83.01
#
DISCID=29120013
DTITLE=Rick Riordan - Die Abenteuer des Apollo 1 - Das verborgene Orakel
DYEAR=2017
DGENRE=Jugend
TTITLE0=062 Das verborgene Orakel
TTITLE1=063 Das verborgene Orakel
TTITLE2=064 Das verborgene Orakel
TTITLE3=065 Das verborgene Orakel
TTITLE4=066 Das verborgene Orakel
TTITLE5=067 Das verborgene Orakel
TTITLE6=068 Das verborgene Orakel
TTITLE7=069 Das verborgene Orakel
TTITLE8=070 Das verborgene Orakel
TTITLE9=071 Das verborgene Orakel
TTITLE10=072 Das verborgene Orakel
TTITLE11=073 Das verborgene Orakel
TTITLE12=074 Das verborgene Orakel
TTITLE13=075 Das verborgene Orakel
TTITLE14=076 Das verborgene Orakel
TTITLE15=077 Das verborgene Orakel
TTITLE16=078 Das verborgene Orakel
TTITLE17=079 Das verborgene Orakel
TTITLE18=080 Das verborgene Orakel
EXTD=
EXTT0=
EXTT1=
EXTT2=
EXTT3=
EXTT4=
EXTT5=
EXTT6=
EXTT7=
EXTT8=
EXTT9=
EXTT10=
EXTT11=
EXTT12=
EXTT13=
EXTT14=
EXTT15=
EXTT16=
EXTT17=
EXTT18=
PLAYORDER=
